<svg width="172" height="167" viewBox="0 0 172 167" fill="none" xmlns="http://www.w3.org/2000/svg">
<g clip-path="url(#clip0_617_22520)">
<rect width="172" height="167" rx="12" fill="#F4F5FA"/>
<path opacity="0.4" d="M96.1092 92.3333H75.8871C67.9788 92.3333 62.666 86.7867 62.666 78.53V59.4723C62.666 51.2156 67.9788 45.6667 75.8871 45.6667H96.1116C104.02 45.6667 109.333 51.2156 109.333 59.4723V78.53C109.333 86.7867 104.02 92.3333 96.1092 92.3333Z" fill="#0052CC"/>
<path fill-rule="evenodd" clip-rule="evenodd" d="M84.2373 61.2416C84.2373 64.4383 81.6356 67.04 78.4389 67.04C75.2399 67.04 72.6406 64.4383 72.6406 61.2416C72.6406 58.045 75.2399 55.441 78.4389 55.441C81.6356 55.441 84.2373 58.045 84.2373 61.2416ZM103.267 73.871C103.81 74.3984 104.2 75.0004 104.457 75.642C105.234 77.5834 104.83 79.9167 103.999 81.8394C103.015 84.1284 101.129 85.8574 98.7539 86.6134C97.6992 86.9517 96.5932 87.0964 95.4895 87.0964H75.9339C73.9879 87.0964 72.2659 86.6437 70.8542 85.7944C69.9699 85.2624 69.8135 84.0374 70.4692 83.2394C71.5659 81.9094 72.6485 80.5747 73.7405 79.2284C75.8219 76.6524 77.2242 75.9057 78.7829 76.5614C79.4152 76.832 80.0499 77.2404 80.7032 77.6697C82.4439 78.8224 84.8635 80.4044 88.0509 78.687C90.2295 77.4957 91.4942 75.4572 92.595 73.6828L92.6172 73.647C92.6913 73.5283 92.7647 73.4096 92.838 73.2913C93.2122 72.6865 93.5809 72.0908 93.9985 71.5424C94.5165 70.8634 96.4392 68.74 98.9242 70.252C100.509 71.204 101.841 72.492 103.267 73.871Z" fill="#0052CC"/>
<g clip-path="url(#clip1_617_22520)">
<path d="M36.6673 119.667L34.0007 117L31.334 119.667" stroke="#0052CC" stroke-width="2" stroke-linecap="round" stroke-linejoin="round"/>
<path d="M34 117V123" stroke="#0052CC" stroke-width="2" stroke-linecap="round" stroke-linejoin="round"/>
<path d="M39.5943 121.26C40.2445 120.906 40.7582 120.345 41.0542 119.666C41.3502 118.987 41.4118 118.229 41.2291 117.511C41.0464 116.793 40.6299 116.157 40.0454 115.702C39.4609 115.248 38.7415 115 38.001 115H37.161C36.9592 114.22 36.5831 113.495 36.0609 112.881C35.5388 112.266 34.8842 111.779 34.1463 111.454C33.4085 111.129 32.6067 110.976 31.801 111.005C30.9954 111.035 30.207 111.247 29.4951 111.625C28.7831 112.003 28.1662 112.538 27.6907 113.189C27.2152 113.84 26.8934 114.59 26.7496 115.384C26.6058 116.177 26.6437 116.992 26.8604 117.769C27.0772 118.545 27.4671 119.263 28.001 119.867" stroke="#0052CC" stroke-width="2" stroke-linecap="round" stroke-linejoin="round"/>
<path d="M36.6673 119.667L34.0007 117L31.334 119.667" stroke="#0052CC" stroke-width="2" stroke-linecap="round" stroke-linejoin="round"/>
</g>
<path d="M56.465 123H54.8343L58.4984 112.818H60.2733L63.9373 123H62.3066L59.4281 114.668H59.3485L56.465 123ZM56.7385 119.013H62.0282V120.305H56.7385V119.013ZM68.024 123.149C67.4075 123.149 66.8573 122.992 66.3734 122.677C65.8928 122.359 65.515 121.906 65.2399 121.32C64.9681 120.73 64.8322 120.022 64.8322 119.197C64.8322 118.371 64.9698 117.665 65.2449 117.079C65.5233 116.492 65.9044 116.043 66.3883 115.732C66.8722 115.42 67.4208 115.264 68.0339 115.264C68.5079 115.264 68.889 115.344 69.1774 115.503C69.469 115.659 69.6944 115.841 69.8535 116.05C70.0159 116.259 70.1419 116.442 70.2314 116.602H70.3208V112.818H71.8074V123H70.3556V121.812H70.2314C70.1419 121.974 70.0126 122.16 69.8436 122.369C69.6779 122.577 69.4492 122.76 69.1575 122.915C68.8658 123.071 68.488 123.149 68.024 123.149ZM68.3521 121.881C68.7797 121.881 69.1409 121.769 69.4359 121.543C69.7342 121.315 69.9596 120.998 70.112 120.594C70.2678 120.189 70.3457 119.719 70.3457 119.182C70.3457 118.652 70.2695 118.187 70.117 117.79C69.9645 117.392 69.7408 117.082 69.4458 116.86C69.1509 116.638 68.7863 116.527 68.3521 116.527C67.9047 116.527 67.5318 116.643 67.2335 116.875C66.9352 117.107 66.7098 117.424 66.5574 117.825C66.4082 118.226 66.3336 118.678 66.3336 119.182C66.3336 119.692 66.4099 120.151 66.5623 120.559C66.7148 120.967 66.9402 121.29 67.2385 121.528C67.5401 121.764 67.9113 121.881 68.3521 121.881ZM76.7876 123.149C76.1712 123.149 75.621 122.992 75.1371 122.677C74.6565 122.359 74.2786 121.906 74.0036 121.32C73.7318 120.73 73.5959 120.022 73.5959 119.197C73.5959 118.371 73.7334 117.665 74.0085 117.079C74.2869 116.492 74.6681 116.043 75.152 115.732C75.6359 115.42 76.1844 115.264 76.7976 115.264C77.2715 115.264 77.6527 115.344 77.9411 115.503C78.2327 115.659 78.4581 115.841 78.6172 116.05C78.7796 116.259 78.9055 116.442 78.995 116.602H79.0845V112.818H80.571V123H79.1193V121.812H78.995C78.9055 121.974 78.7763 122.16 78.6072 122.369C78.4415 122.577 78.2128 122.76 77.9212 122.915C77.6295 123.071 77.2517 123.149 76.7876 123.149ZM77.1158 121.881C77.5433 121.881 77.9046 121.769 78.1996 121.543C78.4979 121.315 78.7232 120.998 78.8757 120.594C79.0315 120.189 79.1094 119.719 79.1094 119.182C79.1094 118.652 79.0331 118.187 78.8807 117.79C78.7282 117.392 78.5045 117.082 78.2095 116.86C77.9145 116.638 77.55 116.527 77.1158 116.527C76.6683 116.527 76.2955 116.643 75.9972 116.875C75.6989 117.107 75.4735 117.424 75.321 117.825C75.1719 118.226 75.0973 118.678 75.0973 119.182C75.0973 119.692 75.1735 120.151 75.326 120.559C75.4785 120.967 75.7038 121.29 76.0021 121.528C76.3037 121.764 76.675 121.881 77.1158 121.881ZM86.517 123V112.818H90.1463C90.9384 112.818 91.5947 112.962 92.1151 113.251C92.6354 113.539 93.0249 113.933 93.2834 114.434C93.5419 114.931 93.6712 115.491 93.6712 116.114C93.6712 116.741 93.5402 117.304 93.2784 117.805C93.0199 118.302 92.6288 118.696 92.1051 118.988C91.5848 119.276 90.9302 119.42 90.1413 119.42H87.6456V118.118H90.0021C90.5026 118.118 90.9086 118.032 91.2202 117.859C91.5317 117.684 91.7604 117.445 91.9062 117.143C92.0521 116.842 92.125 116.499 92.125 116.114C92.125 115.73 92.0521 115.388 91.9062 115.09C91.7604 114.792 91.5301 114.558 91.2152 114.389C90.9036 114.22 90.4927 114.136 89.9822 114.136H88.0533V123H86.517ZM95.3528 123V115.364H96.7896V116.577H96.8691C97.0083 116.166 97.2536 115.843 97.6049 115.607C97.9596 115.369 98.3606 115.249 98.8081 115.249C98.9009 115.249 99.0102 115.253 99.1362 115.259C99.2654 115.266 99.3665 115.274 99.4395 115.284V116.706C99.3798 116.689 99.2737 116.671 99.1213 116.651C98.9688 116.628 98.8163 116.616 98.6639 116.616C98.3126 116.616 97.9993 116.691 97.7243 116.84C97.4525 116.986 97.237 117.19 97.0779 117.452C96.9189 117.71 96.8393 118.005 96.8393 118.337V123H95.3528ZM103.669 123.154C102.953 123.154 102.328 122.99 101.795 122.662C101.261 122.334 100.847 121.875 100.552 121.285C100.257 120.695 100.109 120.005 100.109 119.217C100.109 118.424 100.257 117.732 100.552 117.138C100.847 116.545 101.261 116.085 101.795 115.756C102.328 115.428 102.953 115.264 103.669 115.264C104.385 115.264 105.01 115.428 105.543 115.756C106.077 116.085 106.491 116.545 106.786 117.138C107.081 117.732 107.229 118.424 107.229 119.217C107.229 120.005 107.081 120.695 106.786 121.285C106.491 121.875 106.077 122.334 105.543 122.662C105.01 122.99 104.385 123.154 103.669 123.154ZM103.674 121.906C104.138 121.906 104.522 121.784 104.827 121.538C105.132 121.293 105.358 120.967 105.504 120.559C105.653 120.151 105.727 119.702 105.727 119.212C105.727 118.724 105.653 118.277 105.504 117.869C105.358 117.458 105.132 117.129 104.827 116.88C104.522 116.631 104.138 116.507 103.674 116.507C103.207 116.507 102.819 116.631 102.511 116.88C102.206 117.129 101.979 117.458 101.83 117.869C101.684 118.277 101.611 118.724 101.611 119.212C101.611 119.702 101.684 120.151 101.83 120.559C101.979 120.967 102.206 121.293 102.511 121.538C102.819 121.784 103.207 121.906 103.674 121.906ZM111.747 123.149C111.13 123.149 110.58 122.992 110.096 122.677C109.615 122.359 109.238 121.906 108.963 121.32C108.691 120.73 108.555 120.022 108.555 119.197C108.555 118.371 108.692 117.665 108.968 117.079C109.246 116.492 109.627 116.043 110.111 115.732C110.595 115.42 111.143 115.264 111.757 115.264C112.231 115.264 112.612 115.344 112.9 115.503C113.192 115.659 113.417 115.841 113.576 116.05C113.739 116.259 113.865 116.442 113.954 116.602H114.044V112.818H115.53V123H114.078V121.812H113.954C113.865 121.974 113.735 122.16 113.566 122.369C113.401 122.577 113.172 122.76 112.88 122.915C112.588 123.071 112.211 123.149 111.747 123.149ZM112.075 121.881C112.502 121.881 112.864 121.769 113.159 121.543C113.457 121.315 113.682 120.998 113.835 120.594C113.99 120.189 114.068 119.719 114.068 119.182C114.068 118.652 113.992 118.187 113.84 117.79C113.687 117.392 113.463 117.082 113.169 116.86C112.874 116.638 112.509 116.527 112.075 116.527C111.627 116.527 111.254 116.643 110.956 116.875C110.658 117.107 110.432 117.424 110.28 117.825C110.131 118.226 110.056 118.678 110.056 119.182C110.056 119.692 110.133 120.151 110.285 120.559C110.437 120.967 110.663 121.29 110.961 121.528C111.263 121.764 111.634 121.881 112.075 121.881ZM122.489 119.833V115.364H123.98V123H122.519V121.678H122.439C122.264 122.085 121.982 122.425 121.594 122.697C121.21 122.965 120.731 123.099 120.157 123.099C119.667 123.099 119.233 122.992 118.855 122.776C118.48 122.558 118.185 122.234 117.97 121.807C117.758 121.379 117.652 120.851 117.652 120.221V115.364H119.138V120.042C119.138 120.562 119.282 120.977 119.571 121.285C119.859 121.593 120.234 121.747 120.694 121.747C120.973 121.747 121.249 121.678 121.525 121.538C121.803 121.399 122.033 121.189 122.216 120.907C122.401 120.625 122.492 120.267 122.489 119.833ZM129.194 123.154C128.455 123.154 127.819 122.987 127.285 122.652C126.755 122.314 126.347 121.848 126.062 121.255C125.777 120.662 125.635 119.982 125.635 119.217C125.635 118.441 125.781 117.757 126.072 117.163C126.364 116.567 126.775 116.101 127.305 115.766C127.836 115.432 128.46 115.264 129.18 115.264C129.76 115.264 130.277 115.372 130.731 115.587C131.185 115.799 131.551 116.098 131.829 116.482C132.111 116.867 132.278 117.316 132.331 117.83H130.885C130.805 117.472 130.623 117.163 130.338 116.905C130.056 116.646 129.678 116.517 129.204 116.517C128.79 116.517 128.427 116.626 128.116 116.845C127.807 117.061 127.567 117.369 127.395 117.77C127.222 118.168 127.136 118.638 127.136 119.182C127.136 119.739 127.221 120.219 127.39 120.624C127.559 121.028 127.797 121.341 128.106 121.563C128.417 121.785 128.783 121.896 129.204 121.896C129.486 121.896 129.741 121.845 129.97 121.742C130.202 121.636 130.396 121.485 130.552 121.29C130.711 121.094 130.822 120.859 130.885 120.584H132.331C132.278 121.078 132.118 121.518 131.849 121.906C131.581 122.294 131.221 122.599 130.77 122.821C130.323 123.043 129.798 123.154 129.194 123.154ZM137.486 115.364V116.557H133.315V115.364H137.486ZM134.433 113.534H135.92V120.758C135.92 121.046 135.963 121.263 136.049 121.409C136.135 121.552 136.246 121.649 136.382 121.702C136.521 121.752 136.672 121.777 136.835 121.777C136.954 121.777 137.058 121.769 137.148 121.752C137.237 121.736 137.307 121.722 137.357 121.712L137.625 122.94C137.539 122.973 137.416 123.007 137.257 123.04C137.098 123.076 136.899 123.096 136.661 123.099C136.269 123.106 135.905 123.036 135.567 122.891C135.229 122.745 134.955 122.519 134.746 122.214C134.538 121.91 134.433 121.527 134.433 121.066V113.534ZM144.729 117.228L143.382 117.467C143.326 117.294 143.236 117.13 143.114 116.974C142.994 116.819 142.832 116.691 142.626 116.592C142.421 116.492 142.164 116.442 141.856 116.442C141.435 116.442 141.084 116.537 140.802 116.726C140.52 116.911 140.379 117.152 140.379 117.447C140.379 117.702 140.474 117.907 140.663 118.063C140.852 118.219 141.156 118.347 141.577 118.446L142.79 118.724C143.493 118.887 144.017 119.137 144.362 119.475C144.706 119.813 144.879 120.252 144.879 120.793C144.879 121.25 144.746 121.658 144.481 122.016C144.219 122.37 143.853 122.649 143.382 122.851C142.915 123.053 142.373 123.154 141.756 123.154C140.901 123.154 140.204 122.972 139.663 122.607C139.123 122.239 138.792 121.717 138.669 121.041L140.106 120.822C140.195 121.197 140.379 121.48 140.658 121.673C140.936 121.862 141.299 121.956 141.746 121.956C142.234 121.956 142.623 121.855 142.915 121.653C143.206 121.447 143.352 121.197 143.352 120.902C143.352 120.663 143.263 120.463 143.084 120.3C142.908 120.138 142.638 120.015 142.273 119.933L140.981 119.649C140.268 119.487 139.741 119.228 139.4 118.874C139.062 118.519 138.893 118.07 138.893 117.526C138.893 117.076 139.019 116.681 139.271 116.343C139.522 116.005 139.871 115.741 140.315 115.553C140.759 115.36 141.268 115.264 141.841 115.264C142.666 115.264 143.316 115.443 143.79 115.801C144.264 116.156 144.577 116.631 144.729 117.228Z" fill="#0052CC"/>
</g>
<rect x="0.5" y="0.5" width="171" height="166" rx="11.5" stroke="#E1E2E9"/>
<defs>
<clipPath id="clip0_617_22520">
<rect width="172" height="167" rx="12" fill="white"/>
</clipPath>
<clipPath id="clip1_617_22520">
<rect width="16" height="16" fill="white" transform="translate(26 109)"/>
</clipPath>
</defs>
</svg>
