<svg width="2075" height="350" viewBox="0 0 2075 350" fill="none" xmlns="http://www.w3.org/2000/svg">
<g clip-path="url(#clip0_890_23744)">
<rect width="2075" height="350" fill="#0052CC"/>
<path d="M1741.72 40.0434C1731.58 45.3079 1723.31 53.5781 1718.04 63.7228L1659.7 176.159C1652.79 189.475 1634.92 192.235 1624.32 181.625L1597.04 154.346C1591.92 149.226 1589.62 141.931 1590.87 134.802L1621.46 -38.5523C1623.08 -47.7352 1630.27 -54.9245 1639.45 -56.5445L1812.8 -87.1266C1819.93 -88.3844 1827.23 -86.0844 1832.35 -80.9648L1859.63 -53.6854C1870.24 -43.0759 1867.48 -25.2153 1854.16 -18.3049L1741.72 40.0434Z" fill="#1344A6"/>
<path d="M1912.63 199.268C1902.32 219.129 1886.13 235.32 1866.27 245.626L1646.15 359.856C1620.08 373.385 1614.68 408.351 1635.45 429.122L1688.86 482.527C1698.88 492.55 1713.16 497.053 1727.12 494.59L2066.5 434.719C2084.48 431.547 2098.55 417.473 2101.72 399.495L2161.59 60.1158C2164.06 46.158 2159.55 31.876 2149.53 21.8532L2096.13 -31.5524C2075.36 -52.3228 2040.39 -46.9207 2026.86 -20.8512L1912.63 199.268Z" fill="#1344A6"/>
<path d="M153.57 175.902C158.043 176.856 161.637 179.092 164.35 182.612C167.063 186.059 168.42 190.019 168.42 194.492C168.42 200.946 166.147 206.079 161.6 209.892C157.127 213.632 150.857 215.502 142.79 215.502H106.82V138.282H141.58C149.427 138.282 155.55 140.079 159.95 143.672C164.423 147.266 166.66 152.142 166.66 158.302C166.66 162.849 165.45 166.626 163.03 169.632C160.683 172.639 157.53 174.729 153.57 175.902ZM125.63 169.522H137.95C141.03 169.522 143.377 168.862 144.99 167.542C146.677 166.149 147.52 164.132 147.52 161.492C147.52 158.852 146.677 156.836 144.99 155.442C143.377 154.049 141.03 153.352 137.95 153.352H125.63V169.522ZM139.49 200.322C142.643 200.322 145.063 199.626 146.75 198.232C148.51 196.766 149.39 194.676 149.39 191.962C149.39 189.249 148.473 187.122 146.64 185.582C144.88 184.042 142.423 183.272 139.27 183.272H125.63V200.322H139.49ZM239.94 154.122V215.502H221.13V207.142C219.223 209.856 216.62 212.056 213.32 213.742C210.093 215.356 206.5 216.162 202.54 216.162C197.846 216.162 193.703 215.136 190.11 213.082C186.516 210.956 183.73 207.912 181.75 203.952C179.77 199.992 178.78 195.336 178.78 189.982V154.122H197.48V187.452C197.48 191.559 198.543 194.749 200.67 197.022C202.796 199.296 205.656 200.432 209.25 200.432C212.916 200.432 215.813 199.296 217.94 197.022C220.066 194.749 221.13 191.559 221.13 187.452V154.122H239.94ZM278.421 216.382C273.068 216.382 268.301 215.466 264.121 213.632C259.941 211.799 256.641 209.306 254.221 206.152C251.801 202.926 250.444 199.332 250.151 195.372H268.741C268.961 197.499 269.951 199.222 271.711 200.542C273.471 201.862 275.634 202.522 278.201 202.522C280.548 202.522 282.344 202.082 283.591 201.202C284.911 200.249 285.571 199.039 285.571 197.572C285.571 195.812 284.654 194.529 282.821 193.722C280.988 192.842 278.018 191.889 273.911 190.862C269.511 189.836 265.844 188.772 262.911 187.672C259.978 186.499 257.448 184.702 255.321 182.282C253.194 179.789 252.131 176.452 252.131 172.272C252.131 168.752 253.084 165.562 254.991 162.702C256.971 159.769 259.831 157.459 263.571 155.772C267.384 154.086 271.894 153.242 277.101 153.242C284.801 153.242 290.851 155.149 295.251 158.962C299.724 162.776 302.291 167.836 302.951 174.142H285.571C285.278 172.016 284.324 170.329 282.711 169.082C281.171 167.836 279.118 167.212 276.551 167.212C274.351 167.212 272.664 167.652 271.491 168.532C270.318 169.339 269.731 170.476 269.731 171.942C269.731 173.702 270.648 175.022 272.481 175.902C274.388 176.782 277.321 177.662 281.281 178.542C285.828 179.716 289.531 180.889 292.391 182.062C295.251 183.162 297.744 184.996 299.871 187.562C302.071 190.056 303.208 193.429 303.281 197.682C303.281 201.276 302.254 204.502 300.201 207.362C298.221 210.149 295.324 212.349 291.511 213.962C287.771 215.576 283.408 216.382 278.421 216.382ZM324.249 147.742C320.949 147.742 318.235 146.789 316.109 144.882C314.055 142.902 313.029 140.482 313.029 137.622C313.029 134.689 314.055 132.269 316.109 130.362C318.235 128.382 320.949 127.392 324.249 127.392C327.475 127.392 330.115 128.382 332.169 130.362C334.295 132.269 335.359 134.689 335.359 137.622C335.359 140.482 334.295 142.902 332.169 144.882C330.115 146.789 327.475 147.742 324.249 147.742ZM333.599 154.122V215.502H314.789V154.122H333.599ZM384.63 153.462C391.817 153.462 397.537 155.809 401.79 160.502C406.117 165.122 408.28 171.502 408.28 179.642V215.502H389.58V182.172C389.58 178.066 388.517 174.876 386.39 172.602C384.263 170.329 381.403 169.192 377.81 169.192C374.217 169.192 371.357 170.329 369.23 172.602C367.103 174.876 366.04 178.066 366.04 182.172V215.502H347.23V154.122H366.04V162.262C367.947 159.549 370.513 157.422 373.74 155.882C376.967 154.269 380.597 153.462 384.63 153.462ZM479.211 183.822C479.211 185.582 479.101 187.416 478.881 189.322H436.311C436.605 193.136 437.815 196.069 439.941 198.122C442.141 200.102 444.818 201.092 447.971 201.092C452.665 201.092 455.928 199.112 457.761 195.152H477.781C476.755 199.186 474.885 202.816 472.171 206.042C469.531 209.269 466.195 211.799 462.161 213.632C458.128 215.466 453.618 216.382 448.631 216.382C442.618 216.382 437.265 215.099 432.571 212.532C427.878 209.966 424.211 206.299 421.571 201.532C418.931 196.766 417.611 191.192 417.611 184.812C417.611 178.432 418.895 172.859 421.461 168.092C424.101 163.326 427.768 159.659 432.461 157.092C437.155 154.526 442.545 153.242 448.631 153.242C454.571 153.242 459.851 154.489 464.471 156.982C469.091 159.476 472.685 163.032 475.251 167.652C477.891 172.272 479.211 177.662 479.211 183.822ZM459.961 178.872C459.961 175.646 458.861 173.079 456.661 171.172C454.461 169.266 451.711 168.312 448.411 168.312C445.258 168.312 442.581 169.229 440.381 171.062C438.255 172.896 436.935 175.499 436.421 178.872H459.961ZM514.104 216.382C508.751 216.382 503.984 215.466 499.804 213.632C495.624 211.799 492.324 209.306 489.904 206.152C487.484 202.926 486.128 199.332 485.834 195.372H504.424C504.644 197.499 505.634 199.222 507.394 200.542C509.154 201.862 511.318 202.522 513.884 202.522C516.231 202.522 518.028 202.082 519.274 201.202C520.594 200.249 521.254 199.039 521.254 197.572C521.254 195.812 520.338 194.529 518.504 193.722C516.671 192.842 513.701 191.889 509.594 190.862C505.194 189.836 501.528 188.772 498.594 187.672C495.661 186.499 493.131 184.702 491.004 182.282C488.878 179.789 487.814 176.452 487.814 172.272C487.814 168.752 488.768 165.562 490.674 162.702C492.654 159.769 495.514 157.459 499.254 155.772C503.068 154.086 507.578 153.242 512.784 153.242C520.484 153.242 526.534 155.149 530.934 158.962C535.408 162.776 537.974 167.836 538.634 174.142H521.254C520.961 172.016 520.008 170.329 518.394 169.082C516.854 167.836 514.801 167.212 512.234 167.212C510.034 167.212 508.348 167.652 507.174 168.532C506.001 169.339 505.414 170.476 505.414 171.942C505.414 173.702 506.331 175.022 508.164 175.902C510.071 176.782 513.004 177.662 516.964 178.542C521.511 179.716 525.214 180.889 528.074 182.062C530.934 183.162 533.428 184.996 535.554 187.562C537.754 190.056 538.891 193.429 538.964 197.682C538.964 201.276 537.938 204.502 535.884 207.362C533.904 210.149 531.008 212.349 527.194 213.962C523.454 215.576 519.091 216.382 514.104 216.382ZM575.442 216.382C570.089 216.382 565.322 215.466 561.142 213.632C556.962 211.799 553.662 209.306 551.242 206.152C548.822 202.926 547.466 199.332 547.172 195.372H565.762C565.982 197.499 566.972 199.222 568.732 200.542C570.492 201.862 572.656 202.522 575.222 202.522C577.569 202.522 579.366 202.082 580.612 201.202C581.932 200.249 582.592 199.039 582.592 197.572C582.592 195.812 581.676 194.529 579.842 193.722C578.009 192.842 575.039 191.889 570.932 190.862C566.532 189.836 562.866 188.772 559.932 187.672C556.999 186.499 554.469 184.702 552.342 182.282C550.216 179.789 549.152 176.452 549.152 172.272C549.152 168.752 550.106 165.562 552.012 162.702C553.992 159.769 556.852 157.459 560.592 155.772C564.406 154.086 568.916 153.242 574.122 153.242C581.822 153.242 587.872 155.149 592.272 158.962C596.746 162.776 599.312 167.836 599.972 174.142H582.592C582.299 172.016 581.346 170.329 579.732 169.082C578.192 167.836 576.139 167.212 573.572 167.212C571.372 167.212 569.686 167.652 568.512 168.532C567.339 169.339 566.752 170.476 566.752 171.942C566.752 173.702 567.669 175.022 569.502 175.902C571.409 176.782 574.342 177.662 578.302 178.542C582.849 179.716 586.552 180.889 589.412 182.062C592.272 183.162 594.766 184.996 596.892 187.562C599.092 190.056 600.229 193.429 600.302 197.682C600.302 201.276 599.276 204.502 597.222 207.362C595.242 210.149 592.346 212.349 588.532 213.962C584.792 215.576 580.429 216.382 575.442 216.382ZM663.061 216.272C657.414 216.272 652.354 215.356 647.881 213.522C643.407 211.689 639.814 208.976 637.101 205.382C634.461 201.789 633.067 197.462 632.921 192.402H652.941C653.234 195.262 654.224 197.462 655.911 199.002C657.597 200.469 659.797 201.202 662.511 201.202C665.297 201.202 667.497 200.579 669.111 199.332C670.724 198.012 671.531 196.216 671.531 193.942C671.531 192.036 670.871 190.459 669.551 189.212C668.304 187.966 666.727 186.939 664.821 186.132C662.987 185.326 660.347 184.409 656.901 183.382C651.914 181.842 647.844 180.302 644.691 178.762C641.537 177.222 638.824 174.949 636.551 171.942C634.277 168.936 633.141 165.012 633.141 160.172C633.141 152.986 635.744 147.376 640.951 143.342C646.157 139.236 652.941 137.182 661.301 137.182C669.807 137.182 676.664 139.236 681.871 143.342C687.077 147.376 689.864 153.022 690.231 160.282H669.881C669.734 157.789 668.817 155.846 667.131 154.452C665.444 152.986 663.281 152.252 660.641 152.252C658.367 152.252 656.534 152.876 655.141 154.122C653.747 155.296 653.051 157.019 653.051 159.292C653.051 161.786 654.224 163.729 656.571 165.122C658.917 166.516 662.584 168.019 667.571 169.632C672.557 171.319 676.591 172.932 679.671 174.472C682.824 176.012 685.537 178.249 687.811 181.182C690.084 184.116 691.221 187.892 691.221 192.512C691.221 196.912 690.084 200.909 687.811 204.502C685.611 208.096 682.384 210.956 678.131 213.082C673.877 215.209 668.854 216.272 663.061 216.272ZM737.007 199.552V215.502H727.437C720.617 215.502 715.3 213.852 711.487 210.552C707.673 207.179 705.767 201.716 705.767 194.162V169.742H698.287V154.122H705.767V139.162H724.577V154.122H736.897V169.742H724.577V194.382C724.577 196.216 725.017 197.536 725.897 198.342C726.777 199.149 728.243 199.552 730.297 199.552H737.007ZM775.424 216.382C769.411 216.382 763.984 215.099 759.144 212.532C754.377 209.966 750.601 206.299 747.814 201.532C745.101 196.766 743.744 191.192 743.744 184.812C743.744 178.506 745.137 172.969 747.924 168.202C750.711 163.362 754.524 159.659 759.364 157.092C764.204 154.526 769.631 153.242 775.644 153.242C781.657 153.242 787.084 154.526 791.924 157.092C796.764 159.659 800.577 163.362 803.364 168.202C806.151 172.969 807.544 178.506 807.544 184.812C807.544 191.119 806.114 196.692 803.254 201.532C800.467 206.299 796.617 209.966 791.704 212.532C786.864 215.099 781.437 216.382 775.424 216.382ZM775.424 200.102C779.017 200.102 782.061 198.782 784.554 196.142C787.121 193.502 788.404 189.726 788.404 184.812C788.404 179.899 787.157 176.122 784.664 173.482C782.244 170.842 779.237 169.522 775.644 169.522C771.977 169.522 768.934 170.842 766.514 173.482C764.094 176.049 762.884 179.826 762.884 184.812C762.884 189.726 764.057 193.502 766.404 196.142C768.824 198.782 771.831 200.102 775.424 200.102ZM836.333 164.352C838.533 160.979 841.283 158.339 844.583 156.432C847.883 154.452 851.55 153.462 855.583 153.462V173.372H850.413C845.72 173.372 842.2 174.399 839.853 176.452C837.506 178.432 836.333 181.952 836.333 187.012V215.502H817.523V154.122H836.333V164.352ZM874.034 147.742C870.734 147.742 868.021 146.789 865.894 144.882C863.841 142.902 862.814 140.482 862.814 137.622C862.814 134.689 863.841 132.269 865.894 130.362C868.021 128.382 870.734 127.392 874.034 127.392C877.261 127.392 879.901 128.382 881.954 130.362C884.081 132.269 885.144 134.689 885.144 137.622C885.144 140.482 884.081 142.902 881.954 144.882C879.901 146.789 877.261 147.742 874.034 147.742ZM883.384 154.122V215.502H864.574V154.122H883.384ZM954.875 183.822C954.875 185.582 954.765 187.416 954.545 189.322H911.975C912.269 193.136 913.479 196.069 915.605 198.122C917.805 200.102 920.482 201.092 923.635 201.092C928.329 201.092 931.592 199.112 933.425 195.152H953.445C952.419 199.186 950.549 202.816 947.835 206.042C945.195 209.269 941.859 211.799 937.825 213.632C933.792 215.466 929.282 216.382 924.295 216.382C918.282 216.382 912.929 215.099 908.235 212.532C903.542 209.966 899.875 206.299 897.235 201.532C894.595 196.766 893.275 191.192 893.275 184.812C893.275 178.432 894.559 172.859 897.125 168.092C899.765 163.326 903.432 159.659 908.125 157.092C912.819 154.526 918.209 153.242 924.295 153.242C930.235 153.242 935.515 154.489 940.135 156.982C944.755 159.476 948.349 163.032 950.915 167.652C953.555 172.272 954.875 177.662 954.875 183.822ZM935.625 178.872C935.625 175.646 934.525 173.079 932.325 171.172C930.125 169.266 927.375 168.312 924.075 168.312C920.922 168.312 918.245 169.229 916.045 171.062C913.919 172.896 912.599 175.499 912.085 178.872H935.625ZM989.769 216.382C984.415 216.382 979.649 215.466 975.469 213.632C971.289 211.799 967.989 209.306 965.569 206.152C963.149 202.926 961.792 199.332 961.499 195.372H980.089C980.309 197.499 981.299 199.222 983.059 200.542C984.819 201.862 986.982 202.522 989.549 202.522C991.895 202.522 993.692 202.082 994.939 201.202C996.259 200.249 996.919 199.039 996.919 197.572C996.919 195.812 996.002 194.529 994.169 193.722C992.335 192.842 989.365 191.889 985.259 190.862C980.859 189.836 977.192 188.772 974.259 187.672C971.325 186.499 968.795 184.702 966.669 182.282C964.542 179.789 963.479 176.452 963.479 172.272C963.479 168.752 964.432 165.562 966.339 162.702C968.319 159.769 971.179 157.459 974.919 155.772C978.732 154.086 983.242 153.242 988.449 153.242C996.149 153.242 1002.2 155.149 1006.6 158.962C1011.07 162.776 1013.64 167.836 1014.3 174.142H996.919C996.625 172.016 995.672 170.329 994.059 169.082C992.519 167.836 990.465 167.212 987.899 167.212C985.699 167.212 984.012 167.652 982.839 168.532C981.665 169.339 981.079 170.476 981.079 171.942C981.079 173.702 981.995 175.022 983.829 175.902C985.735 176.782 988.669 177.662 992.629 178.542C997.175 179.716 1000.88 180.889 1003.74 182.062C1006.6 183.162 1009.09 184.996 1011.22 187.562C1013.42 190.056 1014.56 193.429 1014.63 197.682C1014.63 201.276 1013.6 204.502 1011.55 207.362C1009.57 210.149 1006.67 212.349 1002.86 213.962C999.119 215.576 994.755 216.382 989.769 216.382Z" fill="white"/>
</g>
<defs>
<clipPath id="clip0_890_23744">
<rect width="2075" height="350" fill="white"/>
</clipPath>
</defs>
</svg>
